<svg width="368" height="153" viewBox="0 0 369 153" fill="none" xmlns="http://www.w3.org/2000/svg">
<path fill-rule="evenodd" clip-rule="evenodd" d="M120.386 11.43C127.498 9 128.086 0 121.033 0C119.091 0 116.77 1.37 115.176 4.17L105.584 20.73C105.188 21.4355 104.731 22.1047 104.219 22.73C101.768 19.34 102.486 14.28 105.922 12.06L104.587 10.27C97.1565 15.02 99.3379 28.75 111.74 28.75C122.298 28.74 127.199 16 120.386 11.43ZM111.63 26C109.849 26.0455 108.087 25.6214 106.52 24.77C107.18 23.978 107.774 23.1317 108.293 22.24L114.27 11.87L115.266 11.97C123.514 13.72 120.216 26 111.63 26ZM118.304 4.86L115.445 9.79C119.051 9.72 121.063 8.93 122.428 6.36C124.201 3.01 120.894 0.380004 118.304 4.86Z" fill="white"/>
<path fill-rule="evenodd" clip-rule="evenodd" d="M258.954 19.27L259.194 19C259.806 19.1652 260.32 19.5831 260.608 20.15C257.709 23.54 254.342 26.62 249.193 26.72H248.983C247.18 26.7914 245.567 25.6 245.099 23.85L247.091 22.85C247.289 23.3878 247.8 23.7449 248.371 23.7449C248.942 23.7449 249.453 23.3878 249.651 22.85L255 13.54C255.926 11.93 253.466 9.94 249.481 15.35L238.883 33.86H235.307L241.762 22.62C240.573 23.187 239.282 23.5067 237.966 23.56H237.179C233.335 28.43 227.069 27.55 227.069 23.01C224.878 25.12 222.606 26.68 220.544 26.68C217.686 26.68 216.62 24.25 218.124 21.62L222.726 13.62C224.26 10.97 221.849 10.09 216.391 16.97L211.012 26.38H207.436L208.651 24.26C207.05 25.4746 205.181 26.2841 203.202 26.62H203.103C202.772 26.6607 202.439 26.684 202.106 26.69C200.303 26.7614 198.69 25.57 198.222 23.82L200.383 22.66C200.647 23.3795 201.297 23.8844 202.057 23.96C204.268 23.96 204.686 21.0477 205.122 18.0062C205.344 16.4587 205.571 14.8777 206.041 13.63C205.836 13.9043 205.617 14.2002 205.385 14.5135L205.382 14.5172L205.382 14.5177C204.193 16.1225 202.666 18.1821 201.001 20.13C198.072 23.55 194.626 26.7 191.767 26.7C188.908 26.7 187.842 24.28 189.346 21.64L193.092 15.11C193.449 14.4657 193.365 13.6659 192.882 13.11L192.404 12.53L191.755 13.4068L191.755 13.4069C189.33 16.6789 188.116 18.3176 186.547 20.16C183.559 23.58 179.574 26.73 175.59 26.73C172.462 26.73 170.6 24.78 170.789 22.21C169.355 23.0463 167.743 23.5263 166.087 23.61C165.825 23.6274 165.562 23.6274 165.3 23.61C163.914 25.568 161.713 26.7833 159.324 26.91C157.032 26.91 155.23 25.54 155.23 23.11C153.038 25.21 150.767 26.76 148.715 26.76C145.856 26.76 144.8 24.34 146.294 21.7L150.04 15.17C150.397 14.5257 150.313 13.7259 149.831 13.17L149.352 12.59L148.703 13.4662C146.279 16.7387 145.065 18.3775 143.495 20.22C140.567 23.64 137.19 26.79 134.261 26.79C132.458 26.79 131.363 25.83 131.193 24.46C129.49 25.87 127.717 26.79 126.283 26.79C123.424 26.79 122.358 24.37 123.862 21.73L128.843 13.11C130.347 10.51 132.996 9 134.909 9C136.874 8.96352 138.522 10.4814 138.654 12.45H140.646L134.919 22.51C134.102 23.96 134.54 24.51 135.327 24.51C136.901 24.51 139.381 22.17 141.941 19.17L142.18 18.9C144.472 16.13 146.593 13.12 148.157 10.9L147.848 10.49C146.583 8.85 146.773 6.83 148.765 5.02L150.608 7.02L150.498 7.11C150.214 7.35811 150.043 7.71146 150.025 8.08874C150.006 8.46601 150.141 8.83472 150.398 9.11L152.391 11.5C153.546 12.9 154.124 14.16 152.899 16.32L149.352 22.55C148.536 24 148.974 24.55 149.761 24.55C151.335 24.55 153.815 22.21 156.375 19.21L156.564 19L166.496 1.78H170.111L165.609 9.61C166.285 9.11664 167.094 8.84114 167.93 8.82H168.338C169.13 8.86888 169.869 9.23143 170.394 9.82784C170.919 10.4242 171.186 11.2056 171.137 12C171.042 13.4544 170.583 14.8612 169.803 16.09L166.466 21.87C168.532 21.7651 170.465 20.8145 171.815 19.24L172.024 19L175.48 13.03C176.755 10.5202 179.318 8.93444 182.124 8.92C185.023 8.92 186.866 11.39 184.953 14.67L184.445 15.56C181.786 20.17 177.493 20.66 175.211 19.66L174.873 20.28C173.239 23.15 174.534 24.52 176.716 24.52C179.206 24.52 182.473 22.18 185.033 19.18L185.272 18.91C187.519 16.2049 189.586 13.271 191.138 11.0674L191.249 10.91L190.95 10.5C189.685 8.86 189.874 6.84 191.866 5.03L193.709 7.03L193.6 7.12C193.317 7.36952 193.148 7.72362 193.131 8.10087C193.114 8.47812 193.251 8.84604 193.51 9.12L195.502 11.51C196.658 12.91 197.235 14.17 196.01 16.33L192.464 22.56C191.647 24.01 192.086 24.56 192.873 24.56C194.446 24.56 196.927 22.22 199.487 19.22L199.726 18.95C202.265 15.9638 204.811 12.4036 206.485 10.0629C206.918 9.45629 207.294 8.9316 207.595 8.52L210.255 9.96C208.93 12.7236 208.498 15.7271 208.11 18.4191V18.4192C207.86 20.1592 207.629 21.7691 207.187 23.1C208.759 22.0002 210.182 20.6992 211.42 19.23L211.619 19L221.451 1.72H224.997L219.339 11.61C221.152 9.76 222.786 8.91 224.32 8.91C226.302 8.91 227.766 10.86 226.232 13.56L221.122 22.56C220.305 24.01 220.744 24.56 221.531 24.56C223.104 24.56 225.585 22.22 228.145 19.22L228.334 19L229.788 16.52L231.532 13.52C233.574 9.96 235.685 8.87 238.415 8.87C241.752 8.87 243.734 12.39 241.582 16.12L238.245 21.9C240.31 21.787 242.24 20.838 243.594 19.27L243.834 19L249.372 9.35H252.918L252.201 10.58C255.817 7.33 261.166 9.22 257.859 14.86L253.944 21.6C253.724 21.9523 253.515 22.3597 253.296 22.788L253.295 22.7885L253.295 22.7889L253.295 22.7893L253.295 22.7896L253.295 22.7899C253.047 23.273 252.786 23.7827 252.48 24.27C255.018 23.168 257.243 21.4498 258.954 19.27ZM182.055 14.75C184.166 11.06 180.551 10.48 178.509 14L176.227 18C177.562 18.48 179.843 18.55 181.547 15.64L182.055 14.75ZM133.076 19.61C130.924 23 128.813 24.61 127.348 24.61C126.561 24.61 126.123 24.06 126.94 22.61L131.921 13.95C133.833 10.63 137.608 11.49 135.905 14.7L133.076 19.61ZM158.738 24.1082C159.012 24.37 159.385 24.5016 159.762 24.47L159.752 24.43C160.886 24.3492 161.9 23.6931 162.441 22.69C161.196 21.8439 160.375 20.4986 160.19 19L158.945 21.25C158.59 21.806 158.378 22.4416 158.327 23.1C158.315 23.4795 158.464 23.8464 158.738 24.1082ZM163.457 21C162.461 20.2385 161.9 19.0358 161.953 17.78C161.953 15.25 164.404 11.11 166.416 11.11C166.805 11.1123 167.174 11.2825 167.43 11.5772C167.685 11.872 167.802 12.2628 167.751 12.65C167.713 13.4039 167.479 14.1347 167.073 14.77L163.457 21ZM236.074 19.22H236.253L238.823 14.75C240.975 11.05 237.568 9.38 235.078 13.62L233.404 16.54L230.715 21.23C228.603 24.93 232.657 25.47 234.331 22.6V22.53C234.112 22.1681 233.995 21.7534 233.992 21.33C233.989 20.773 234.207 20.2378 234.598 19.8421C234.988 19.4464 235.519 19.2226 236.074 19.22ZM0.987915 73.257L6.67969 67.544L12.3695 73.259L6.6777 78.971L0.987915 73.257ZM357.333 67.57L351.642 73.283L357.331 78.997L363.024 73.285L357.333 67.57Z" fill="white"/>
<path fill-rule="evenodd" clip-rule="evenodd" d="M62.4419 62.32V75C62.4478 76.3704 61.8274 77.6677 60.7584 78.52C61.7952 79.4696 62.4029 80.8016 62.4419 82.21V96.31C62.4044 98.8127 60.3926 100.832 57.8996 100.87H42.3204V98.79H55.7779C58.2903 98.7794 60.332 96.7519 60.3699 94.23V80.13C60.3376 78.7263 59.7412 77.3955 58.7164 76.44C59.7714 75.584 60.3801 74.2918 60.3699 72.93V60.25C60.368 59.555 60.2042 58.8702 59.8918 58.25C61.4431 59.01 62.4312 60.5871 62.4419 62.32ZM49.6819 73.48H47.61V63.07H52.9392V65.16H49.6819V73.48Z" fill="#636466"/>
<path fill-rule="evenodd" clip-rule="evenodd" d="M82.5634 91.34H80.4915V63.07H85.8207V65.16H82.5634V91.34ZM49.6819 91.34H47.61V80.87H52.9392V82.95H49.6819V91.34Z" fill="#636466"/>
<path fill-rule="evenodd" clip-rule="evenodd" d="M128.155 78.46C128.157 80.2025 127.15 81.7872 125.575 82.52L128.633 100.87H121.272L120.924 98.79H126.581L123.513 80.44C125.085 79.7017 126.085 78.1122 126.073 76.37V60.22C126.068 59.5254 125.905 58.8413 125.595 58.22C127.16 58.982 128.154 60.574 128.155 62.32V78.46ZM92.7735 58.25C93.0859 58.8702 93.2497 59.555 93.2517 60.25V94.25C93.2142 96.7527 91.2024 98.7724 88.7094 98.81H77.6924C77.0003 98.8065 76.3185 98.6423 75.7002 98.33C76.4573 99.8874 78.0282 100.879 79.7544 100.89H90.7913C93.2842 100.852 95.2961 98.8327 95.3335 96.33V62.33C95.3225 60.5919 94.3303 59.0106 92.7735 58.25ZM113.373 73.48H115.445V65.16H118.712V63.07H113.373V73.48ZM116.192 80.87H113.373V98.79H108.084V100.88H115.445V82.95H116.541L116.192 80.87ZM147.35 91.34H145.268V63.07H150.608V65.16H147.35V91.34Z" fill="#636466"/>
<path fill-rule="evenodd" clip-rule="evenodd" d="M158.039 60.25C158.037 59.555 157.873 58.87 157.561 58.25C159.106 59.0191 160.085 60.5987 160.091 62.33V96.33C160.053 98.8327 158.041 100.852 155.548 100.89H144.502C142.775 100.879 141.204 99.8874 140.447 98.33C141.066 98.6426 141.747 98.8069 142.44 98.81H153.496C155.989 98.7724 158.001 96.7527 158.039 94.25V60.25ZM180.232 91.34H178.15V63.07H183.489V65.16H180.232V91.34Z" fill="#636466"/>
<path fill-rule="evenodd" clip-rule="evenodd" d="M211.41 57.77V98.79H206.121V100.88H213.482V57.77H211.41ZM190.442 58.25C190.755 58.8702 190.918 59.555 190.92 60.25V94.25C190.883 96.7527 188.871 98.7724 186.378 98.81H172.871V100.89H188.45C190.943 100.852 192.955 98.8327 192.992 96.33V62.33C192.983 60.5942 191.995 59.0134 190.442 58.25ZM244.162 98.79V57.77H246.244V100.88H238.873L238.285 98.79H244.162ZM231.402 79.95V98.79H226.123V100.88H233.484V87.19L231.402 79.95ZM269.633 83H263.547C261.803 82.9911 260.221 81.975 259.483 80.39C260.101 80.7019 260.783 80.8662 261.475 80.87H269.633V83ZM266.366 85.73L264.284 86.21V91.34H266.366V85.73ZM277.054 60.25C277.052 59.555 276.888 58.8702 276.576 58.25C278.127 59.01 279.115 60.5871 279.126 62.32V71.07L271.705 72.8V70.24L277.054 69V60.25Z" fill="#636466"/>
<path fill-rule="evenodd" clip-rule="evenodd" d="M312.924 57.77H310.185L303.979 77.18L310.852 98.79H304.865L305.443 100.63L305.503 100.88H312.924L306.051 79.26L312.924 57.77ZM264.284 63.07V73.48H266.366V65.16H269.623V63.07H264.284ZM276.576 76.05C276.888 76.6702 277.052 77.355 277.054 78.05V94.25C277.016 96.7527 275.004 98.7724 272.511 98.81H261.465C260.773 98.8065 260.091 98.6423 259.472 98.33C260.229 99.8874 261.8 100.879 263.527 100.89H274.563C277.056 100.852 279.068 98.8327 279.106 96.33V80.12C279.099 78.3916 278.119 76.8157 276.576 76.05ZM297.165 80.87H297.843L299.247 85.35V100.88H291.886V98.79H297.165V80.87ZM330.236 98.79V57.77H332.308V100.88H324.957V98.79H330.236Z" fill="#636466"/>
<path d="M168.239 123.85H169.643C175.052 124.13 179.296 125.58 181.985 128.57C184.715 125.57 188.958 124.11 194.397 123.85H195.741C207.804 124.67 213.303 133.35 222.935 137.04C224.432 137.725 226.062 138.066 227.707 138.04C230.177 137.77 231.751 135.26 231.432 132.46C231.093 129.46 228.165 126.85 224.898 128.29C224.468 128.49 224.074 128.761 223.732 129.09C223.483 129.32 223.204 129.92 222.567 129.7C221.969 129.2 222.567 128.47 222.875 128.05C224.083 125.895 226.483 124.704 228.922 125.05C234.53 125.45 239.55 130.39 238.694 137.87C236.781 149 226.641 152 214.618 153H210.703C200.21 152.573 190.145 148.709 182.045 142C173.881 148.686 163.783 152.544 153.257 153H149.412C137.3 151.93 127.06 149 125.277 137.54C124.599 129.38 129.44 125.37 135.058 124.96C137.516 124.615 139.936 125.802 141.175 127.96C141.453 128.42 141.971 129.13 141.483 129.68C140.876 129.79 140.577 129.31 140.318 129.07C139.582 128.3 138.571 127.858 137.509 127.84C133.664 127.7 131.453 131.99 132.987 135.45C133.596 136.816 134.866 137.769 136.343 137.97C137.986 137.978 139.612 137.638 141.115 136.97C142.454 136.455 143.745 135.819 144.97 135.07C152.291 130.81 158.019 124.76 168.239 123.85V123.85Z" fill="white"/>
<path fill-rule="evenodd" clip-rule="evenodd" d="M366.91 77.192L361.219 82.906L363.297 84.992L368.988 79.277L366.91 77.192ZM16.312 77.236L10.6212 82.95L12.6991 85.035L18.3899 79.322L16.312 77.236Z" fill="#636466"/>
<path fill-rule="evenodd" clip-rule="evenodd" d="M89.307 56.28C89.2907 53.7684 87.2666 51.7364 84.7647 51.72H73.7079C72.5024 51.7173 71.3455 52.1969 70.4931 53.0527C69.6407 53.9084 69.163 55.0698 69.1656 56.28V90.28C69.1819 92.7916 71.2061 94.8236 73.7079 94.84H84.7647C87.2577 94.8024 89.2696 92.7827 89.307 90.28V56.28ZM54.7818 72.48C55.8249 71.6286 56.4289 70.3496 56.4254 69V56.28C56.4091 53.7684 54.385 51.7364 51.8831 51.72H36.304V94.83H51.8931C54.386 94.7924 56.3979 92.7727 56.4353 90.27V76.17C56.403 74.7663 55.8066 73.4354 54.7818 72.48ZM43.6653 59.11H49.0044V69.52H43.6653V59.11ZM49.0044 76.91H43.6653V87.38H49.0044V76.91ZM81.876 59.11H76.5468V87.38H81.886L81.876 59.11ZM112.267 76.91L115.256 94.83H122.597L119.529 76.48C121.119 75.7589 122.143 74.1718 122.149 72.42V56.28C122.157 55.0786 121.689 53.9232 120.848 53.068C120.008 52.2128 118.863 51.7279 117.666 51.72H102.087V94.83H109.448V76.91H112.267ZM114.768 59.11H109.429V69.52H114.768V59.11ZM154.094 56.28C154.078 53.7684 152.054 51.7364 149.552 51.72H149.512H138.455C135.968 51.7474 133.967 53.7826 133.973 56.28V90.28C133.989 92.7916 136.013 94.8236 138.515 94.84H149.552C152.045 94.8024 154.057 92.7827 154.094 90.28V56.28ZM146.663 59.11H141.324V87.38H146.663V59.11ZM186.976 56.28C186.959 53.7684 184.935 51.7364 182.433 51.72H166.854V94.84H182.433C184.926 94.8024 186.938 92.7827 186.976 90.28V56.28ZM179.555 59.11H174.215V87.38H179.555V59.11ZM207.465 51.72H200.104V94.83H207.465V51.72ZM240.228 51.72V94.83H232.866L227.467 76V94.83H220.136V51.72H227.438L232.837 69.39V51.72H240.228ZM273.109 74.08C273.093 71.5684 271.069 69.5364 268.567 69.52H260.369V59.11H265.708V66.73L273.129 65V56.28C273.113 53.7684 271.089 51.7364 268.587 51.72H257.53C256.328 51.7227 255.176 52.2046 254.328 53.0597C253.48 53.9149 253.005 55.0733 253.008 56.28V72.37C253.01 73.5767 253.49 74.733 254.342 75.5844C255.194 76.4358 256.348 76.9127 257.55 76.91H265.708V87.39H260.369V79.69L253.008 81.41V90.28C253.024 92.7839 255.036 94.8128 257.53 94.84H268.567C271.06 94.8024 273.072 92.7827 273.109 90.28V74.08ZM300.044 73.22L306.917 94.84H299.496L299.436 94.59L293.918 76.92H293.241V94.83H285.879V51.72H293.241V69.52H293.848L299.496 51.72H306.977L300.044 73.22ZM326.302 51.72H318.94V94.83H326.302V51.72Z" fill="white"/>
</svg>
