<svg width="368" height="153" viewBox="0 0 368 153" fill="none" xmlns="http://www.w3.org/2000/svg">
<path d="M119.393 11.43C126.505 9 127.093 0 120.04 0C118.048 0 115.777 1.37 114.183 4.17L104.591 20.73C104.2 21.4383 103.743 22.1079 103.226 22.73C100.776 19.34 101.493 14.28 104.929 12.06L103.595 10.27C96.1637 15.02 98.3452 28.75 110.747 28.75C121.305 28.74 126.206 16 119.393 11.43ZM110.637 26C108.856 26.0451 107.094 25.621 105.527 24.77C106.19 23.9801 106.784 23.1336 107.3 22.24L113.277 11.87L114.273 11.97C122.521 13.72 119.223 26 110.637 26ZM114.452 9.79L117.311 4.86C119.901 0.38 123.208 3.01 121.435 6.36C120.07 8.93 118.058 9.72 114.452 9.79Z" fill="white"/>
<path d="M258.2 19L257.961 19.27C256.252 21.4528 254.026 23.1717 251.486 24.27C252.064 23.35 252.482 22.35 252.95 21.6L256.865 14.86C260.172 9.22 254.823 7.33 251.207 10.58L251.924 9.35H248.378L242.84 19L242.601 19.27C241.931 20.0474 241.113 20.681 240.194 21.1329C239.274 21.5849 238.274 21.8458 237.252 21.9L240.589 16.12C242.74 12.39 240.758 8.87 237.421 8.87C234.692 8.87 232.58 9.96 230.538 13.52L228.795 16.52L227.34 19L227.151 19.22C224.591 22.22 222.111 24.56 220.537 24.56C219.75 24.56 219.312 24.01 220.129 22.56L225.239 13.56C226.773 10.86 225.308 8.91 223.326 8.91C221.792 8.91 220.159 9.76 218.346 11.61L224.003 1.72H220.457L210.626 19L210.427 19.23C209.19 20.7003 207.767 22.0014 206.193 23.1C207.319 19.71 207.08 14.51 209.261 9.96L206.602 8.52C205.137 10.52 201.93 15.19 198.732 18.95L198.493 19.22C195.933 22.22 193.453 24.56 191.879 24.56C191.092 24.56 190.654 24.01 191.471 22.56L195.017 16.33C196.242 14.17 195.664 12.91 194.509 11.51L192.517 9.12C192.388 8.9857 192.287 8.82695 192.22 8.65307C192.154 8.47919 192.122 8.29366 192.128 8.10738C192.133 7.92111 192.176 7.73782 192.253 7.56827C192.33 7.39871 192.44 7.24631 192.576 7.12L192.686 7.03L190.843 5.03C188.851 6.84 188.662 8.86 189.927 10.5L190.226 10.91C188.662 13.13 186.55 16.14 184.249 18.91L184.01 19.18C181.45 22.18 178.183 24.52 175.693 24.52C173.511 24.52 172.216 23.15 173.85 20.28L174.188 19.66C176.469 20.66 180.763 20.17 183.422 15.56L183.93 14.67C185.843 11.39 184 8.92 181.101 8.92C179.733 8.92971 178.393 9.31501 177.228 10.0342C176.062 10.7533 175.114 11.779 174.487 13L171.031 19L170.822 19.24C170.155 20.02 169.336 20.6555 168.417 21.1077C167.497 21.5598 166.495 21.8192 165.473 21.87L168.809 16.09C169.595 14.8632 170.054 13.4553 170.144 12C170.169 11.6067 170.115 11.2124 169.988 10.8397C169.86 10.467 169.661 10.1231 169.401 9.82783C169.141 9.53252 168.826 9.29152 168.473 9.11859C168.12 8.94567 167.737 8.8442 167.345 8.82H166.927C166.092 8.84363 165.283 9.11889 164.606 9.61L169.108 1.78H165.492L155.571 19L155.382 19.21C152.822 22.21 150.342 24.55 148.768 24.55C147.981 24.55 147.543 24 148.359 22.55L151.906 16.32C153.131 14.16 152.553 12.9 151.398 11.5L149.405 9.11C149.276 8.97572 149.175 8.81664 149.108 8.64227C149.042 8.4679 149.01 8.28181 149.017 8.09513C149.023 7.90844 149.067 7.72499 149.146 7.55573C149.225 7.38647 149.337 7.23488 149.475 7.11L149.615 7L147.772 5C145.78 6.81 145.59 8.83 146.855 10.47L147.164 10.88C145.6 13.1 143.479 16.11 141.188 18.88L140.948 19.15C138.388 22.15 135.908 24.49 134.334 24.49C133.547 24.49 133.109 23.94 133.926 22.49L139.654 12.43H137.661C137.595 11.4849 137.169 10.6016 136.472 9.96304C135.775 9.32451 134.86 8.97969 133.916 9C132.003 9 129.354 10.51 127.85 13.11L122.869 21.73C121.365 24.37 122.431 26.79 125.29 26.79C126.724 26.79 128.497 25.87 130.201 24.46C130.37 25.83 131.466 26.79 133.269 26.79C136.197 26.79 139.574 23.64 142.502 20.22C144.206 18.22 145.491 16.46 148.359 12.59L148.838 13.17C149.074 13.4406 149.222 13.7784 149.259 14.1366C149.297 14.4948 149.222 14.8559 149.047 15.17L145.301 21.7C143.807 24.34 144.863 26.76 147.722 26.76C149.774 26.76 152.045 25.21 154.236 23.11C154.236 25.54 156.039 26.91 158.33 26.91C159.51 26.8475 160.66 26.5182 161.695 25.9468C162.73 25.3753 163.623 24.5765 164.307 23.61C164.569 23.63 164.832 23.63 165.094 23.61C166.751 23.5309 168.364 23.0506 169.796 22.21C169.606 24.78 171.469 26.73 174.597 26.73C178.581 26.73 182.566 23.58 185.554 20.16C187.257 18.16 188.542 16.4 191.411 12.53L191.889 13.11C192.126 13.3806 192.273 13.7184 192.311 14.0766C192.348 14.4348 192.274 14.7959 192.098 15.11L188.353 21.64C186.849 24.28 187.915 26.7 190.774 26.7C193.632 26.7 197.079 23.55 200.007 20.13C202 17.8 203.793 15.31 205.048 13.63C203.653 17.33 204.4 23.96 201.063 23.96C200.691 23.923 200.336 23.7814 200.04 23.5515C199.744 23.3216 199.519 23.0126 199.39 22.66L197.228 23.82C197.456 24.6697 197.964 25.4165 198.67 25.938C199.376 26.4595 200.237 26.7247 201.113 26.69C201.452 26.69 201.78 26.69 202.109 26.62H202.209C204.187 26.2823 206.055 25.4729 207.657 24.26L206.442 26.38H210.018L215.397 16.97C220.856 10.09 223.266 10.97 221.732 13.62L217.13 21.62C215.626 24.25 216.692 26.68 219.551 26.68C221.613 26.68 223.884 25.12 226.075 23.01C226.075 27.55 232.341 28.43 236.186 23.56H236.973C238.288 23.5101 239.58 23.1902 240.768 22.62L234.313 33.86H237.889L248.488 15.35C252.472 9.94 254.932 11.93 254.006 13.54L248.657 22.85C248.56 23.1126 248.386 23.3392 248.157 23.4992C247.928 23.6592 247.656 23.7449 247.377 23.7449C247.098 23.7449 246.826 23.6592 246.597 23.4992C246.368 23.3392 246.194 23.1126 246.097 22.85L244.105 23.85C244.332 24.6997 244.841 25.4466 245.547 25.968C246.252 26.4895 247.114 26.7547 247.99 26.72H248.199C253.349 26.62 256.715 23.54 259.614 20.15C259.472 19.8693 259.273 19.6218 259.029 19.4236C258.785 19.2255 258.503 19.0811 258.2 19ZM177.515 14C179.508 10.48 183.173 11.06 181.062 14.75L180.554 15.64C178.85 18.55 176.569 18.48 175.234 18L177.515 14ZM132.083 19.61C129.932 23 127.82 24.61 126.356 24.61C125.569 24.61 125.13 24.06 125.947 22.61L130.928 13.95C132.84 10.63 136.615 11.49 134.912 14.7L132.083 19.61ZM158.769 24.47C158.426 24.4894 158.09 24.3738 157.831 24.1477C157.573 23.9217 157.412 23.6031 157.384 23.26C157.38 23.2068 157.38 23.1532 157.384 23.1C157.438 22.4422 157.65 21.8073 158.002 21.25L159.197 19C159.29 19.7403 159.538 20.4524 159.926 21.0887C160.315 21.7249 160.833 22.2709 161.448 22.69C161.182 23.1836 160.796 23.6018 160.326 23.9059C159.855 24.21 159.317 24.3903 158.759 24.43L158.769 24.47ZM162.464 21C161.974 20.6248 161.58 20.136 161.319 19.5753C161.057 19.0147 160.934 18.3987 160.96 17.78C160.96 15.25 163.411 11.11 165.423 11.11C165.601 11.11 165.778 11.1455 165.943 11.2145C166.108 11.2834 166.258 11.3845 166.384 11.5119C166.51 11.6392 166.61 11.7903 166.677 11.9565C166.745 12.1226 166.779 12.3006 166.777 12.48C166.782 12.5366 166.782 12.5934 166.777 12.65C166.743 13.4045 166.509 14.1363 166.1 14.77L162.464 21ZM235.259 19.22H235.08C234.526 19.2253 233.997 19.4499 233.607 19.845C233.217 20.2402 232.998 20.7738 232.998 21.33C233.005 21.7528 233.122 22.1666 233.337 22.53V22.6C231.664 25.47 227.609 24.93 229.721 21.23L234.084 13.62C236.574 9.38 239.981 11.05 237.829 14.75L235.259 19.22ZM0 73.26L5.68774 67.54L11.3854 73.26L5.68774 79L0 73.26ZM350.628 73.26L356.326 67.55L362.013 73.27L356.346 79L350.628 73.26Z" fill="white"/>
<path d="M46.6177 73.48H48.6896V65.16H51.9468V63.07H46.6177V73.48ZM61.4496 75V62.32C61.4444 61.4705 61.2029 60.6393 60.7524 59.9202C60.3018 59.2011 59.6601 58.6226 58.8996 58.25C59.2152 58.869 59.3791 59.5546 59.3777 60.25V72.93C59.3881 73.5981 59.2494 74.26 58.9719 74.8674C58.6944 75.4747 58.2851 76.012 57.774 76.44C58.2813 76.9129 58.6889 77.4831 58.973 78.1169C59.257 78.7507 59.4115 79.4352 59.4275 80.13V94.23C59.4118 95.4518 58.9145 96.6176 58.0446 97.4722C57.1746 98.3269 56.0028 98.8007 54.7857 98.79H41.3284V100.87H56.9074C58.1073 100.854 59.2536 100.369 60.1021 99.5172C60.9506 98.6654 61.4341 97.5145 61.4496 96.31V82.21C61.4304 81.5129 61.2714 80.8269 60.9821 80.193C60.6929 79.559 60.2794 78.99 59.7662 78.52C60.296 78.1014 60.7233 77.5664 61.0151 76.9562C61.3069 76.3461 61.4555 75.6768 61.4496 75V75Z" fill="#636466"/>
<path d="M46.6176 91.3401H48.6894V83.0001H51.9467V80.8701H46.6176V91.3401ZM79.4889 91.3401H81.5608V65.1601H84.8181V63.0701H79.4989L79.4889 91.3401Z" fill="#636466"/>
<path d="M91.7808 58.25C92.0964 58.869 92.2604 59.5546 92.259 60.25V94.25C92.2435 95.4545 91.76 96.6054 90.9115 97.4572C90.063 98.309 88.9166 98.7944 87.7167 98.81H76.6998C76.0078 98.8065 75.3259 98.6422 74.7076 98.33C75.0788 99.0934 75.655 99.7377 76.3713 100.19C77.0876 100.642 77.9156 100.885 78.7618 100.89H89.7986C90.9985 100.874 92.1448 100.389 92.9933 99.5372C93.8418 98.6854 94.3253 97.5345 94.3408 96.33V62.33C94.3377 61.4774 94.0961 60.6429 93.6435 59.9215C93.1908 59.2002 92.5454 58.621 91.7808 58.25V58.25ZM112.38 73.48H114.452V65.16H117.719V63.07H112.38V73.48ZM124.582 82.48C125.354 82.1221 126.008 81.5493 126.465 80.8296C126.923 80.1099 127.164 79.2736 127.162 78.42V62.32C127.163 61.464 126.923 60.6252 126.47 59.9C126.017 59.1748 125.37 58.5924 124.602 58.22C124.913 58.8406 125.077 59.5252 125.081 60.22V76.37C125.088 77.2234 124.85 78.0608 124.396 78.7824C123.942 79.5041 123.291 80.0794 122.521 80.44L125.589 98.79H119.931L120.279 100.87H127.641L124.582 82.48ZM115.199 80.83H112.38V98.79H107.091V100.88H114.452V83H115.548L115.199 80.83ZM144.275 91.3H146.357V65.16H149.615V63.07H144.275V91.3Z" fill="#636466"/>
<path d="M156.567 58.25C156.884 58.8686 157.048 59.5545 157.045 60.25V94.25C157.03 95.4546 156.546 96.6054 155.698 97.4572C154.849 98.309 153.703 98.7944 152.503 98.81H141.446C140.754 98.8065 140.072 98.6422 139.454 98.33C139.825 99.0935 140.402 99.7377 141.118 100.19C141.834 100.642 142.662 100.885 143.508 100.89H154.555C155.755 100.874 156.901 100.389 157.75 99.5372C158.598 98.6854 159.082 97.5346 159.097 96.33V62.33C159.097 61.4806 158.86 60.6483 158.413 59.9273C157.966 59.2062 157.326 58.6252 156.567 58.25V58.25ZM177.157 91.34H179.239V65.16H182.496V63.07H177.157V91.34Z" fill="#636466"/>
<path d="M189.449 58.25C189.764 58.869 189.928 59.5547 189.927 60.25V94.25C189.911 95.4546 189.428 96.6054 188.579 97.4572C187.731 98.3091 186.584 98.7945 185.385 98.81H171.877V100.89H187.456C188.656 100.874 189.803 100.389 190.651 99.5372C191.5 98.6854 191.983 97.5346 191.999 96.33V62.33C191.995 61.4788 191.755 60.6455 191.304 59.9244C190.853 59.2034 190.211 58.6234 189.449 58.25V58.25ZM210.417 57.77V98.77H205.127V100.86H212.489V57.77H210.417ZM243.168 57.77V98.77H237.291L237.879 100.86H245.25V57.77H243.168ZM230.408 80V98.79H225.119V100.88H232.48V87.19L230.408 80ZM262.553 83H268.639V80.87H260.481C259.789 80.8666 259.107 80.7023 258.489 80.39C258.85 81.1666 259.425 81.8241 260.144 82.2861C260.863 82.7481 261.699 82.9957 262.553 83V83ZM265.372 85.73L263.29 86.21V91.34H265.372V85.73ZM275.582 58.25C275.897 58.869 276.061 59.5547 276.06 60.25V69L270.711 70.24V72.8L278.132 71.07V62.32C278.126 61.4705 277.885 60.6393 277.434 59.9202C276.984 59.2011 276.342 58.6226 275.582 58.25V58.25Z" fill="#636466"/>
<path d="M275.582 76.05C275.897 76.669 276.061 77.3547 276.06 78.05V94.25C276.044 95.4546 275.561 96.6054 274.712 97.4572C273.864 98.3091 272.717 98.7945 271.517 98.81H260.471C259.779 98.8066 259.097 98.6423 258.479 98.33C258.85 99.0935 259.426 99.7377 260.142 100.19C260.859 100.642 261.686 100.885 262.533 100.89H273.569C274.769 100.874 275.916 100.389 276.764 99.5372C277.613 98.6854 278.096 97.5346 278.112 96.33V80.12C278.109 79.2724 277.871 78.4422 277.424 77.723C276.977 77.0039 276.339 76.4245 275.582 76.05V76.05ZM263.29 63.05V73.48H265.372V65.16H268.629V63.07L263.29 63.05ZM296.838 80.87H296.161V98.79H290.862V100.88H298.223V85.35L296.838 80.87ZM311.919 57.77H309.19L302.984 77.18L309.857 98.79H303.881L304.459 100.63L304.518 100.88H311.939L305.066 79.26L311.939 57.77H311.919ZM329.232 57.77V98.77H323.952V100.86H331.304V57.77H329.232Z" fill="#636466"/>
<path d="M167.246 123.85H168.65C174.059 124.13 178.302 125.58 180.992 128.57C183.721 125.57 187.965 124.11 193.403 123.85H194.748C206.811 124.67 212.309 133.35 221.942 137.04C223.439 137.723 225.068 138.065 226.713 138.04C229.183 137.77 230.757 135.26 230.438 132.46C230.1 129.46 227.171 126.85 223.904 128.29C223.475 128.492 223.082 128.762 222.738 129.09C222.489 129.32 222.211 129.92 221.573 129.7C220.975 129.2 221.573 128.47 221.882 128.05C222.472 126.997 223.364 126.147 224.443 125.612C225.522 125.077 226.737 124.881 227.928 125.05C233.536 125.45 238.557 130.39 237.7 137.87C235.787 149 225.647 152 213.624 153H209.709C199.217 152.57 189.153 148.707 181.052 142C172.89 148.69 162.791 152.549 152.264 153H148.419C136.307 151.93 126.067 149 124.284 137.54C123.606 129.38 128.447 125.37 134.065 124.96C135.267 124.789 136.492 124.983 137.582 125.518C138.672 126.053 139.578 126.903 140.182 127.96C140.46 128.42 140.978 129.13 140.49 129.68C139.883 129.79 139.584 129.31 139.325 129.07C138.961 128.689 138.525 128.384 138.043 128.173C137.561 127.962 137.042 127.849 136.516 127.84C132.671 127.7 130.46 131.99 131.994 135.45C132.294 136.121 132.76 136.705 133.347 137.146C133.935 137.587 134.624 137.87 135.35 137.97C136.994 137.981 138.62 137.641 140.122 136.97C141.461 136.454 142.751 135.819 143.977 135.07C151.298 130.81 157.026 124.76 167.246 123.85V123.85Z" fill="white"/>
<path d="M360.23 82.9099L365.918 77.1899L368 79.2799L362.302 84.9999L360.23 82.9099ZM9.60242 82.9099L15.2902 77.1999L17.372 79.2799L11.7142 84.9999L9.60242 82.9099Z" fill="#636466"/>
<path d="M55.433 69C55.4369 69.6667 55.2912 70.3257 55.0067 70.9282C54.7221 71.5306 54.3061 72.061 53.7895 72.48C54.2967 72.9529 54.7044 73.5231 54.9884 74.1569C55.2724 74.7907 55.427 75.4752 55.443 76.17V90.27C55.4275 91.4745 54.944 92.6254 54.0955 93.4772C53.247 94.329 52.1006 94.8144 50.9008 94.83H35.3118V51.72H50.8908C52.0939 51.7252 53.2462 52.2074 54.0969 53.0614C54.9476 53.9154 55.4278 55.0722 55.433 56.28V69ZM48.0121 59.11H42.673V69.52H48.0121V59.11ZM48.0121 76.91H42.673V87.38H48.0121V76.91ZM83.7721 51.72C84.9752 51.7252 86.1275 52.2074 86.9782 53.0614C87.8289 53.9154 88.3091 55.0722 88.3144 56.28V90.28C88.2989 91.4845 87.8154 92.6354 86.9669 93.4872C86.1184 94.339 84.972 94.8244 83.7721 94.84H72.7154C71.514 94.8295 70.3647 94.3457 69.5151 93.4928C68.6655 92.6399 68.1836 91.4861 68.1732 90.28V56.28C68.1732 55.0706 68.6517 53.9107 69.5036 53.0556C70.3554 52.2004 71.5107 51.72 72.7154 51.72H83.7721ZM80.8834 59.11H75.5543V87.38H80.8934L80.8834 59.11ZM114.263 94.83L111.275 76.91H108.456V94.83H101.094V51.72H116.673C117.266 51.7239 117.852 51.845 118.398 52.0762C118.944 52.3075 119.439 52.6445 119.855 53.068C120.272 53.4914 120.601 53.993 120.824 54.5441C121.047 55.0952 121.16 55.6851 121.156 56.28V56.28V72.42C121.154 73.278 120.907 74.1174 120.442 74.8375C119.977 75.5576 119.316 76.1279 118.536 76.48L121.604 94.83H114.263ZM113.775 59.11H108.436V69.52H113.775V59.11ZM148.559 51.72C149.762 51.7252 150.914 52.2074 151.765 53.0614C152.615 53.9154 153.096 55.0722 153.101 56.28V90.28C153.085 91.4845 152.602 92.6354 151.753 93.4872C150.905 94.339 149.759 94.8244 148.559 94.84H137.522C136.32 94.8295 135.171 94.3457 134.321 93.4928C133.472 92.6399 132.99 91.4861 132.98 90.28V56.28C132.98 55.0809 133.45 53.9301 134.289 53.0766C135.128 52.2231 136.268 51.7357 137.462 51.72H148.559ZM145.67 59.11H140.331V87.38H145.67V59.11ZM181.44 51.72C182.643 51.7252 183.795 52.2074 184.646 53.0614C185.497 53.9154 185.977 55.0722 185.982 56.28V90.28C185.967 91.4845 185.483 92.6354 184.635 93.4872C183.786 94.339 182.64 94.8244 181.44 94.84H165.861V51.72H181.44ZM178.561 59.11H173.222V87.38H178.561V59.11ZM199.111 51.72H206.472V94.83H199.111V51.72ZM239.234 51.72V94.83H231.873L226.474 76V94.83H219.142V51.72H226.444L231.843 69.39V51.72H239.234ZM267.573 69.52C268.776 69.5252 269.928 70.0073 270.779 70.8614C271.63 71.7154 272.11 72.8722 272.115 74.08V90.28C272.1 91.4845 271.616 92.6354 270.768 93.4872C269.919 94.339 268.773 94.8244 267.573 94.84H256.536C255.338 94.8243 254.194 94.3382 253.349 93.4859C252.503 92.6335 252.024 91.4827 252.014 90.28V81.41L259.375 79.69V87.39H264.714V76.91H256.556C255.961 76.9113 255.371 76.7949 254.821 76.5674C254.271 76.34 253.77 76.006 253.348 75.5844C252.927 75.1628 252.592 74.6619 252.363 74.1104C252.134 73.5589 252.015 72.9675 252.014 72.37V72.37V56.28C252.014 55.074 252.49 53.9172 253.337 53.0626C254.185 52.208 255.335 51.7253 256.536 51.72H267.593C268.796 51.7252 269.948 52.2074 270.799 53.0614C271.65 53.9154 272.13 55.0722 272.135 56.28V65L264.714 66.73V59.11H259.375V69.52H267.573ZM299.05 73.22L305.923 94.84H298.502L298.442 94.59L292.924 76.92H292.246V94.83H284.885V51.72H292.246V69.52H292.854L298.502 51.72H305.983L299.05 73.22ZM317.976 51.72H325.337V94.83H317.976V51.72Z" fill="white"/>
</svg>
