<svg width="111" height="24" viewBox="0 0 111 24" fill="none" xmlns="http://www.w3.org/2000/svg">
<path fill-rule="evenodd" clip-rule="evenodd" d="M13.8057 8.17004C18.7611 6.50004 19.0981 0.290039 14.2517 0.290039C12.5029 0.471977 10.9762 1.56472 10.228 3.17004L3.6869 14.59C3.41528 15.0874 3.10019 15.5592 2.74538 16C1.92377 14.8628 1.59004 13.44 1.81933 12.0518C2.04863 10.6637 2.82167 9.4269 3.9644 8.62004L2.97333 7.37004C-2.12078 10.65 -0.624259 20.12 7.92869 20.12C15.1239 20.12 18.4935 11.31 13.8057 8.17004ZM7.79985 18.23C6.57685 18.2611 5.36716 17.968 4.29146 17.38C4.74577 16.8323 5.15355 16.2469 5.51047 15.63L9.6036 8.48004L10.2577 8.55004C15.9663 9.76004 13.6967 18.23 7.79985 18.23ZM12.3984 3.60004L10.4163 7.00004C12.884 7.00004 14.2815 6.45004 15.223 4.60004C16.442 2.33004 14.1724 0.510039 12.3984 3.60004Z" fill="white"/>
<path fill-rule="evenodd" clip-rule="evenodd" d="M108.929 13.56L109.097 13.37C109.53 13.516 109.876 13.8499 110.039 14.28C108.047 16.61 105.728 18.74 102.199 18.81H102.061C100.816 18.8594 99.7062 18.0266 99.3947 16.81L100.772 16.15C100.944 16.4786 101.281 16.6844 101.649 16.6844C102.017 16.6844 102.355 16.4786 102.526 16.15L106.203 9.73C106.838 8.62 105.133 7.25 102.417 10.98L95.143 23.75H92.695L97.1251 16C96.2883 16.3741 95.3844 16.5715 94.4691 16.58H93.9339C91.2976 19.94 86.9964 19.33 86.9964 16.2C85.49 17.66 83.934 18.73 82.5167 18.73C80.5544 18.73 79.8607 17.05 80.8517 15.24L84.0133 9.69C85.0737 7.87 83.4087 7.26 79.6625 12L75.9558 18.53H73.498L74.3305 17.06C73.2385 17.9174 71.9562 18.4939 70.5942 18.74H70.5248C70.3003 18.7516 70.0753 18.7516 69.8508 18.74C68.6101 18.7846 67.5055 17.9528 67.1948 16.74L68.7111 15.94C68.8892 16.4394 69.3371 16.79 69.8608 16.84C71.3795 16.84 71.6636 14.8588 71.9621 12.777C72.1174 11.6935 72.2767 10.5828 72.6159 9.71C72.429 9.95928 72.2254 10.2358 72.0069 10.5324C71.2178 11.6039 70.2361 12.9368 69.1571 14.19C67.1353 16.55 64.7865 18.72 62.8142 18.72C60.842 18.72 60.1582 17.05 61.1492 15.23L63.726 10.72C63.9763 10.2738 63.9207 9.71688 63.5873 9.33L63.2602 8.93C61.3177 11.59 60.4059 12.82 59.2365 14.19C57.2246 16.55 54.4892 18.72 51.7241 18.72C49.5735 18.72 48.295 17.37 48.4239 15.6C47.4418 16.1896 46.3338 16.5325 45.193 16.6C45.0148 16.6117 44.836 16.6117 44.6578 16.6C43.7005 17.9667 42.172 18.8116 40.5151 18.89C39.7882 18.9616 39.0657 18.7161 38.5297 18.2154C37.9938 17.7148 37.6956 17.0068 37.7104 16.27C36.2139 17.72 34.6579 18.79 33.2407 18.79C31.2684 18.79 30.5846 17.12 31.5757 15.3L34.1524 10.79C34.4027 10.3438 34.3471 9.78688 34.0137 9.4L33.6966 9C33.0845 9.80907 32.5792 10.4856 32.1392 11.0746L32.139 11.0748C31.1544 12.3931 30.4971 13.2731 29.7025 14.22C27.6808 16.58 25.3418 18.75 23.3597 18.75C22.3412 18.8871 21.4019 18.1751 21.2487 17.15C20.3242 18.0336 19.1431 18.5945 17.8791 18.75C15.9068 18.75 15.223 17.08 16.2141 15.26L19.6233 9.31C20.4658 7.73397 22.0218 6.67607 23.7858 6.48C25.1778 6.46889 26.3166 7.59557 26.3329 9H27.7501L23.8156 15.9C23.2507 16.86 23.5579 17.24 24.0931 17.24C25.1733 17.24 26.878 15.61 28.6322 13.56L28.8007 13.37C30.2725 11.6157 31.6249 9.69769 32.6753 8.20777L32.9136 7.87L32.7055 7.59C31.8036 6.45 31.9225 5.06 33.3001 3.81L34.5588 5.2C34.3517 5.36834 34.2203 5.61359 34.1942 5.88064C34.1681 6.14768 34.2495 6.4141 34.42 6.62L35.7877 8.27C36.7274 9.12865 36.8768 10.563 36.1346 11.6L33.7065 15.9C33.1416 16.86 33.4488 17.24 33.984 17.24C35.0642 17.24 36.7689 15.61 38.5231 13.56L38.6519 13.41L45.4606 1.5H47.9383L44.8461 6.91C45.3088 6.57306 45.8614 6.38486 46.4318 6.37C47.0218 6.3352 47.5985 6.55508 48.0183 6.97479C48.438 7.3945 48.6612 7.97446 48.632 8.57C48.5651 9.56875 48.2517 10.5347 47.7202 11.38L45.4308 15.38C46.8518 15.3072 48.1809 14.6493 49.1077 13.56L49.2564 13.39L51.5755 9.28C52.4507 7.55032 54.2097 6.45839 56.1344 6.45C58.1166 6.45 59.4248 8.18 58.1166 10.45L57.7697 11.06C55.9461 14.24 52.9927 14.55 51.4268 13.89L51.189 14.31C50.0691 16.3 50.961 17.24 52.4575 17.24C54.2018 17.24 56.4119 15.61 58.1661 13.56L58.3346 13.37C59.8065 11.6157 61.1588 9.69767 62.2093 8.20775L62.4475 7.87L62.2394 7.59C61.3673 6.45 61.4466 5.06 62.8737 3.81L64.1324 5.2C63.9253 5.36834 63.7939 5.61359 63.7678 5.88064C63.7417 6.14768 63.8231 6.4141 63.9936 6.62L65.3216 8.25C66.2613 9.10865 66.4107 10.543 65.6685 11.58L63.2305 15.88C62.6656 16.84 62.9728 17.22 63.508 17.22C64.5883 17.22 66.2929 15.59 68.0471 13.54L68.2156 13.35C70.1149 11.1056 72.0216 8.40655 73.1451 6.81616L73.1461 6.81469L73.1468 6.81369C73.3241 6.56275 73.4818 6.33947 73.6169 6.15L75.4504 7.15C74.5415 9.06304 74.2431 11.1347 73.9758 12.9908C73.8029 14.191 73.643 15.3011 73.3394 16.22C74.4385 15.4683 75.4348 14.5739 76.3027 13.56L76.4415 13.4L83.2501 1.53H85.6386L81.7536 8.35C82.5862 7.28968 83.8091 6.61501 85.1431 6.48C86.4513 6.48 87.5018 7.82 86.4513 9.69L82.9429 15.9C82.378 16.86 82.6852 17.24 83.2204 17.24C84.3007 17.24 86.0053 15.61 87.7595 13.56L87.8883 13.41L88.8794 11.69L90.0687 9.59C91.476 7.14 92.923 6.38 94.7961 6.38C97.0954 6.38 98.4532 8.81 96.9765 11.38L94.6772 15.38C96.0967 15.3014 97.4237 14.6446 98.3541 13.56L98.5225 13.37L102.328 6.71H104.766L104.271 7.56C106.748 5.32 110.425 6.62 108.156 10.51L105.47 15.16C105.367 15.3472 105.26 15.5551 105.149 15.7744L105.148 15.7749L105.148 15.7753C104.949 16.165 104.732 16.5907 104.479 17C106.222 16.2432 107.751 15.0611 108.929 13.56ZM56.1245 10.44C57.5814 7.92 55.1037 7.49 53.6964 9.92L52.1305 12.68C53.0423 13.05 54.6082 13.05 55.7776 11.05L56.1245 10.44ZM22.5173 13.79C21.0406 16.13 19.5441 17.24 18.553 17.24C18.0178 17.24 17.7106 16.86 18.2755 15.9L21.6649 9.9C22.9732 7.61 25.5698 8.2 24.3805 10.42L22.5173 13.79ZM40.1282 16.8938C40.3174 17.0733 40.5735 17.1629 40.8323 17.14C41.5976 17.0969 42.2903 16.6686 42.6757 16C41.812 15.4087 41.2473 14.4664 41.1296 13.42L40.2674 14.93C40.024 15.3116 39.8776 15.7478 39.8412 16.2C39.8346 16.462 39.939 16.7144 40.1282 16.8938ZM43.3793 14.76C42.7117 14.226 42.3422 13.3984 42.3883 12.54C42.3883 10.79 44.0731 7.94 45.4507 7.94C45.7111 7.9518 45.9547 8.07317 46.1223 8.27461C46.29 8.47606 46.3663 8.73915 46.3327 9C46.3055 9.51917 46.1449 10.0223 45.8669 10.46L43.3793 14.76ZM93.2302 13.53H93.3492L95.1628 10.44C96.6296 7.89 94.2907 6.73 92.586 9.66L91.4166 11.66L89.5633 14.89C88.0766 17.43 90.8913 17.83 92.0409 15.83C91.8886 15.5802 91.8064 15.2933 91.8031 15C91.7978 14.6137 91.9455 14.2413 92.2134 13.9653C92.4814 13.6893 92.8474 13.5326 93.2302 13.53Z" fill="white"/>
</svg>
